<svg width="844" height="590" viewBox="0 0 844 590" fill="none" xmlns="http://www.w3.org/2000/svg">
<g clip-path="url(#clip0_46_337)">
<path d="M46.5003 509.256C49.818 482.578 66.3516 456.292 91.7945 447.61C81.7606 475.069 81.7627 505.193 91.8006 532.651C95.7102 543.226 101.16 554.581 97.4823 565.239C95.1942 571.871 89.5967 576.945 83.3398 580.118C77.0826 583.291 70.1383 584.803 63.281 586.285L61.9314 587.401C51.0455 562.82 43.1826 535.934 46.5003 509.256Z" fill="#F0F0F0"/>
<path d="M92.047 448.115C77.2303 464.716 68.0213 485.565 65.728 507.698C65.1497 512.454 65.3247 517.272 66.2466 521.973C67.2926 526.524 69.5382 530.712 72.75 534.101C75.6813 537.322 79.0526 540.277 81.1499 544.154C82.1941 546.154 82.8035 548.353 82.9383 550.606C83.0731 552.858 82.7302 555.114 81.9322 557.224C80.0804 562.536 76.4308 566.865 72.7146 570.974C68.5885 575.537 64.2304 580.21 62.4765 586.259C62.264 586.992 61.1392 586.62 61.3514 585.888C64.4029 575.364 74.6189 569.386 79.4909 559.907C81.7643 555.484 82.7185 550.349 80.5873 545.68C78.7236 541.597 75.2497 538.547 72.2535 535.312C69.0718 532.052 66.7369 528.061 65.4527 523.69C64.2944 519.051 63.9341 514.248 64.3872 509.488C65.2363 498.754 67.7677 488.221 71.8887 478.274C76.5291 466.896 83.0817 456.395 91.263 447.226C91.7696 446.659 92.5503 447.551 92.047 448.115Z" fill="white"/>
<path d="M66.0469 500.528C62.3856 499.639 59.1595 497.477 56.9447 494.429C54.7299 491.381 53.6707 487.646 53.9561 483.889C54.0165 483.129 55.2003 483.187 55.1398 483.948C54.8675 487.446 55.8546 490.926 57.9228 493.76C59.991 496.594 63.0041 498.595 66.4184 499.402C67.1601 499.579 66.7844 500.703 66.0469 500.528Z" fill="white"/>
<path d="M71.0487 532.664C77.6614 528.716 82.543 522.42 84.72 515.032C84.9351 514.3 86.06 514.673 85.8451 515.404C83.5653 523.087 78.472 529.629 71.5816 533.722C70.9246 534.112 70.3952 533.052 71.0487 532.664Z" fill="white"/>
<path d="M77.6283 468.018C78.9733 468.657 80.4559 468.952 81.9431 468.877C83.4303 468.801 84.8754 468.358 86.1488 467.586C86.8005 467.188 87.3292 468.249 86.6816 468.644C85.2709 469.49 83.6742 469.978 82.0313 470.065C80.3884 470.153 78.7492 469.836 77.2568 469.143C77.1107 469.09 76.9904 468.983 76.9204 468.844C76.8504 468.705 76.836 468.544 76.88 468.395C76.93 468.246 77.0366 468.123 77.1767 468.053C77.3168 467.982 77.4791 467.97 77.6283 468.018Z" fill="white"/>
<path d="M169.348 495.26C168.948 495.52 168.548 495.78 168.148 496.05C162.79 499.574 157.726 503.527 153.008 507.87C152.638 508.2 152.268 508.54 151.908 508.88C140.653 519.466 131.46 532.049 124.798 545.99C122.152 551.54 119.933 557.284 118.158 563.17C115.708 571.3 113.698 580.31 108.848 586.96C108.35 587.66 107.809 588.328 107.228 588.96H63.3978C63.2982 588.91 63.1981 588.87 63.098 588.82L61.348 588.9C61.4183 588.59 61.4979 588.27 61.5682 587.96C61.6082 587.78 61.6581 587.6 61.6981 587.42C61.7279 587.3 61.7581 587.18 61.7782 587.07C61.788 587.03 61.7982 586.99 61.808 586.96C61.828 586.85 61.8583 586.75 61.8783 586.65C62.3182 584.86 62.7715 583.07 63.2382 581.28C63.2382 581.27 63.2382 581.27 63.2479 581.26C66.8383 567.63 71.598 554.18 78.2479 541.88C78.4481 541.51 78.6478 541.13 78.868 540.76C81.8963 535.233 85.3712 529.962 89.2582 525C91.3953 522.291 93.6682 519.69 96.0682 517.21C102.282 510.814 109.463 505.435 117.348 501.27C133.068 492.97 151.268 489.79 168.068 494.86C168.498 494.991 168.918 495.12 169.348 495.26Z" fill="#F0F0F0"/>
<path d="M169.249 495.817C147.424 500.152 127.519 511.253 112.362 527.545C109.037 530.994 106.276 534.946 104.181 539.255C102.276 543.519 101.548 548.214 102.072 552.854C102.473 557.191 103.386 561.58 102.726 565.938C102.356 568.164 101.519 570.286 100.27 572.166C99.0215 574.046 97.3896 575.64 95.4816 576.845C90.8054 579.971 85.2851 581.23 79.8438 582.274C73.8023 583.433 67.5087 584.54 62.4664 588.314C61.8555 588.771 61.1817 587.797 61.7917 587.34C70.5644 580.775 82.3204 582.152 91.9173 577.517C96.3954 575.354 100.249 571.829 101.358 566.818C102.328 562.436 101.391 557.909 100.947 553.522C100.369 549.003 100.907 544.411 102.514 540.148C104.382 535.746 106.986 531.695 110.214 528.167C117.354 520.108 125.717 513.222 134.996 507.761C145.552 501.47 157.106 497.03 169.158 494.635C169.904 494.487 169.991 495.67 169.249 495.817Z" fill="white"/>
<path d="M116.933 522.012C114.545 519.098 113.271 515.43 113.337 511.663C113.404 507.896 114.808 504.275 117.297 501.447C117.803 500.877 118.713 501.636 118.207 502.207C115.884 504.836 114.577 508.209 114.522 511.717C114.467 515.225 115.668 518.637 117.907 521.337C118.394 521.924 117.417 522.596 116.933 522.012H116.933Z" fill="white"/>
<path d="M101.579 550.683C109.236 551.511 116.924 549.423 123.11 544.835C123.723 544.38 124.397 545.355 123.785 545.809C117.339 550.572 109.333 552.728 101.367 551.848C100.608 551.764 100.824 550.599 101.579 550.682V550.683Z" fill="white"/>
<path d="M145.754 503.028C146.443 504.348 147.449 505.476 148.682 506.311C149.915 507.146 151.336 507.662 152.817 507.812C153.577 507.887 153.36 509.052 152.605 508.978C150.969 508.804 149.401 508.233 148.037 507.313C146.672 506.394 145.554 505.154 144.78 503.702C144.695 503.572 144.664 503.414 144.691 503.261C144.719 503.107 144.804 502.971 144.929 502.878C145.059 502.789 145.218 502.755 145.372 502.783C145.527 502.811 145.664 502.899 145.754 503.028Z" fill="white"/>
<path d="M812.114 307.961H671.114V305.961H810.114V212.961H812.114V307.961Z" fill="#E4E4E4"/>
<path d="M355.114 346.961H353.114V251.961H494.114V253.961H355.114V346.961Z" fill="#E4E4E4"/>
<path d="M561.114 134.961H420.114V39.961H422.114V132.961H561.114V134.961Z" fill="#E4E4E4"/>
<path d="M392.057 4.76837e-06C391.301 0.00142019 390.576 0.302857 390.042 0.838155C389.507 1.37345 389.207 2.09887 389.207 2.85518C389.207 3.6115 389.507 4.33692 390.042 4.87221C390.576 5.40751 391.301 5.70895 392.057 5.71036H449.976C450.732 5.70895 451.457 5.40751 451.991 4.87221C452.526 4.33692 452.826 3.6115 452.826 2.85518C452.826 2.09887 452.526 1.37345 451.991 0.838155C451.457 0.302857 450.732 0.00142019 449.976 4.76837e-06H392.057Z" fill="#3F3D56"/>
<path d="M392.057 16.8218C391.3 16.8218 390.574 17.1226 390.038 17.6581C389.503 18.1935 389.202 18.9198 389.202 19.677C389.202 20.4342 389.503 21.1605 390.038 21.6959C390.574 22.2314 391.3 22.5322 392.057 22.5322H449.976C450.732 22.5308 451.457 22.2293 451.991 21.694C452.526 21.1587 452.826 20.4333 452.826 19.677C452.826 18.9207 452.526 18.1953 451.991 17.66C451.457 17.1247 450.732 16.8232 449.976 16.8218H392.057Z" fill="#3F3D56"/>
<path d="M840.462 200.174C841.218 200.172 841.943 199.871 842.477 199.336C843.012 198.8 843.312 198.075 843.312 197.319C843.312 196.562 843.012 195.837 842.477 195.302C841.943 194.766 841.218 194.465 840.462 194.463H782.537C782.162 194.463 781.79 194.536 781.443 194.679C781.096 194.822 780.78 195.033 780.515 195.298C780.249 195.563 780.038 195.878 779.894 196.225C779.75 196.572 779.676 196.943 779.676 197.319C779.676 197.694 779.75 198.066 779.894 198.413C780.038 198.759 780.249 199.074 780.515 199.339C780.78 199.605 781.096 199.815 781.443 199.958C781.79 200.101 782.162 200.175 782.537 200.174H840.462Z" fill="#2F2E41"/>
<path d="M840.462 183.35C841.218 183.349 841.943 183.047 842.477 182.512C843.012 181.977 843.312 181.251 843.312 180.495C843.312 179.739 843.012 179.013 842.477 178.478C841.943 177.943 841.218 177.641 840.462 177.64H782.537C782.162 177.639 781.79 177.713 781.443 177.856C781.096 177.999 780.78 178.209 780.515 178.474C780.249 178.74 780.038 179.055 779.894 179.401C779.75 179.748 779.676 180.12 779.676 180.495C779.676 180.871 779.75 181.242 779.894 181.589C780.038 181.936 780.249 182.251 780.515 182.516C780.78 182.781 781.096 182.991 781.443 183.135C781.79 183.278 782.162 183.351 782.537 183.35H840.462Z" fill="#2F2E41"/>
<path d="M595.114 335.961C573.952 335.961 553.264 329.685 535.668 317.928C518.072 306.17 504.358 289.459 496.259 269.908C488.16 250.356 486.042 228.842 490.17 208.086C494.299 187.33 504.49 168.264 519.454 153.3C534.418 138.336 553.484 128.145 574.24 124.016C594.995 119.888 616.51 122.007 636.061 130.105C655.613 138.204 672.324 151.918 684.081 169.514C695.839 187.111 702.114 207.798 702.114 228.961C702.082 257.329 690.799 284.526 670.739 304.586C650.68 324.645 623.482 335.928 595.114 335.961ZM595.114 123.961C574.347 123.961 554.046 130.119 536.779 141.656C519.512 153.194 506.054 169.593 498.107 188.779C490.16 207.965 488.08 229.077 492.132 249.445C496.183 269.813 506.183 288.522 520.868 303.207C535.552 317.891 554.262 327.892 574.63 331.943C594.998 335.994 616.11 333.915 635.296 325.968C654.482 318.021 670.881 304.563 682.418 287.295C693.956 270.028 700.114 249.728 700.114 228.961C700.083 201.122 689.01 174.434 669.326 154.749C649.641 135.065 622.952 123.992 595.114 123.961Z" fill="#E4E4E4"/>
<path d="M552.114 146.961C558.742 146.961 564.114 141.588 564.114 134.961C564.114 128.333 558.742 122.961 552.114 122.961C545.487 122.961 540.114 128.333 540.114 134.961C540.114 141.588 545.487 146.961 552.114 146.961Z" fill="#009241"/>
<path d="M491.114 265.961C497.742 265.961 503.114 260.588 503.114 253.961C503.114 247.333 497.742 241.961 491.114 241.961C484.487 241.961 479.114 247.333 479.114 253.961C479.114 260.588 484.487 265.961 491.114 265.961Z" fill="#009241"/>
<path d="M667.114 319.961C673.742 319.961 679.114 314.588 679.114 307.961C679.114 301.333 673.742 295.961 667.114 295.961C660.487 295.961 655.114 301.333 655.114 307.961C655.114 314.588 660.487 319.961 667.114 319.961Z" fill="#009241"/>
<path d="M324.767 359.747C324.009 359.747 323.283 360.048 322.748 360.583C322.212 361.119 321.911 361.845 321.911 362.602C321.911 363.36 322.212 364.086 322.748 364.621C323.283 365.157 324.009 365.458 324.767 365.458H382.691C383.448 365.456 384.173 365.155 384.707 364.619C385.241 364.084 385.541 363.359 385.541 362.602C385.541 361.846 385.241 361.121 384.707 360.585C384.173 360.05 383.448 359.749 382.691 359.747H324.767Z" fill="#2F2E41"/>
<path d="M324.767 376.571C324.391 376.57 324.019 376.643 323.672 376.787C323.325 376.93 323.01 377.14 322.744 377.405C322.479 377.67 322.268 377.985 322.124 378.332C321.98 378.679 321.906 379.05 321.906 379.426C321.906 379.801 321.98 380.173 322.124 380.52C322.268 380.867 322.479 381.181 322.744 381.447C323.01 381.712 323.325 381.922 323.672 382.065C324.019 382.208 324.391 382.282 324.767 382.281H382.691C383.448 382.28 384.173 381.978 384.707 381.443C385.241 380.908 385.541 380.182 385.541 379.426C385.541 378.67 385.241 377.944 384.707 377.409C384.173 376.874 383.448 376.572 382.691 376.571H324.767Z" fill="#2F2E41"/>
<path d="M181.891 590.393H167.336C165.506 590.391 163.752 589.663 162.458 588.369C161.163 587.075 160.436 585.32 160.433 583.49V462.182C160.436 460.352 161.163 458.597 162.458 457.303C163.752 456.009 165.506 455.281 167.336 455.279H181.891C183.721 455.281 185.476 456.009 186.77 457.303C188.064 458.597 188.792 460.352 188.794 462.182V583.49C188.792 585.32 188.064 587.075 186.77 588.369C185.476 589.663 183.721 590.391 181.891 590.393Z" fill="#009241"/>
<path d="M220.54 590.393H205.985C204.155 590.391 202.4 589.663 201.106 588.369C199.812 587.075 199.084 585.32 199.082 583.49V462.182C199.084 460.352 199.812 458.597 201.106 457.303C202.4 456.009 204.155 455.281 205.985 455.279H220.54C222.37 455.281 224.125 456.009 225.419 457.303C226.713 458.597 227.441 460.352 227.443 462.182V583.49C227.441 585.32 226.713 587.075 225.419 588.369C224.125 589.663 222.37 590.391 220.54 590.393Z" fill="#009241"/>
<path d="M195.359 329.174C223.135 329.174 245.652 306.657 245.652 278.881C245.652 251.105 223.135 228.588 195.359 228.588C167.583 228.588 145.066 251.105 145.066 278.881C145.066 306.657 167.583 329.174 195.359 329.174Z" fill="#009241"/>
<path d="M212.431 498.295H176.25C168.731 498.323 161.339 496.365 154.82 492.618C148.302 488.871 142.889 483.468 139.13 476.957C135.37 470.445 133.398 463.056 133.412 455.538C133.426 448.019 135.427 440.638 139.21 434.141L189.808 346.503C190.371 345.529 191.18 344.719 192.154 344.157C193.129 343.594 194.234 343.298 195.359 343.298C196.484 343.298 197.59 343.594 198.564 344.157C199.539 344.719 200.348 345.529 200.91 346.503L250.489 432.376C254.346 439.056 256.377 446.635 256.377 454.349C256.377 462.063 254.346 469.641 250.489 476.322C246.632 483.002 241.084 488.55 234.403 492.407C227.723 496.264 220.145 498.295 212.431 498.295Z" fill="#2F2E41"/>
<path d="M207.23 299.993C210.49 299.902 214.547 299.789 217.673 297.506C218.604 296.798 219.368 295.895 219.913 294.861C220.459 293.826 220.771 292.685 220.829 291.517C220.885 290.687 220.749 289.856 220.431 289.087C220.112 288.318 219.621 287.634 218.994 287.087C217.361 285.707 214.977 285.383 212.408 286.138L215.07 266.686L213.116 266.419L209.987 289.287L211.619 288.538C213.51 287.671 216.107 287.229 217.721 288.593C218.117 288.949 218.426 289.392 218.623 289.887C218.82 290.383 218.9 290.917 218.858 291.448C218.81 292.317 218.575 293.166 218.17 293.936C217.765 294.707 217.198 295.381 216.509 295.913C214.077 297.69 210.843 297.919 207.175 298.022L207.23 299.993Z" fill="#2F2E41"/>
<path d="M235.356 268.364H224.733V270.336H235.356V268.364Z" fill="#2F2E41"/>
<path d="M201.827 268.364H191.205V270.336H201.827V268.364Z" fill="#2F2E41"/>
<path d="M183.53 487.047C183.112 486.167 182.886 485.209 182.868 484.235L180.389 393.899C180.308 390.139 181.724 386.502 184.325 383.786C186.925 381.07 190.498 379.499 194.258 379.417C198.017 379.335 201.655 380.75 204.371 383.35C207.088 385.951 208.66 389.523 208.743 393.282L211.222 483.619C211.259 485.449 210.57 487.219 209.304 488.541C208.039 489.863 206.301 490.629 204.471 490.671L189.92 490.987C188.588 491.015 187.277 490.658 186.144 489.959C185.01 489.26 184.103 488.249 183.53 487.047Z" fill="#009241"/>
<path d="M190.693 241.704C196.803 249.695 206.504 255.056 216.756 253.786C226.519 252.578 234.573 245.773 236.594 236.031C237.476 231.425 237.238 226.674 235.9 222.179C234.562 217.684 232.163 213.577 228.905 210.203C221.995 202.935 212.105 199.026 202.316 197.685C183.772 195.145 164.728 201.677 150.707 213.86C143.666 219.916 138.045 227.45 134.246 235.925C130.586 244.337 128.842 253.458 129.142 262.627C129.681 280.747 137.618 298.832 151.313 310.849C153.014 312.337 154.795 313.731 156.646 315.026C158.208 316.122 159.688 313.558 158.14 312.472C144.115 302.633 135.169 286.624 132.714 269.803C131.428 261.328 132.001 252.675 134.394 244.443C136.787 236.212 140.942 228.599 146.572 222.134C157.897 209.257 174.502 200.888 191.7 200.138C209.005 199.383 230.631 207.109 233.87 226.373C235.321 235.008 232.094 244.083 224.182 248.406C215.71 253.034 205.323 251.13 198.043 245.152C196.26 243.695 194.651 242.037 193.247 240.211C192.106 238.719 189.536 240.191 190.693 241.704L190.693 241.704Z" fill="#2F2E41"/>
</g>
<defs>
<clipPath id="clip0_46_337">
<rect width="843.317" height="590.961" fill="white"/>
</clipPath>
</defs>
</svg>
